<svg width="215" height="314" viewBox="0 0 215 314" fill="none" xmlns="http://www.w3.org/2000/svg">
<path d="M212.5 213.113C203.416 265.764 161.898 313 107.485 313C53.0723 313 11.5549 265.764 2.4708 213.113C-0.250716 197.339 0.889397 176.172 5.18854 153.245C9.48477 130.334 16.9223 105.738 26.7401 83.1318C36.5611 60.5182 48.7434 39.943 62.506 25.0384C76.2795 10.1219 91.5243 1 107.485 1C123.446 1 138.691 10.1219 152.465 25.0384C166.227 39.943 178.41 60.5182 188.231 83.1318C198.048 105.738 205.486 130.334 209.782 153.245C214.081 176.172 215.221 197.339 212.5 213.113Z" stroke="black" stroke-width="2"/>
<path d="M144.996 53.9098C157.644 83.1314 167.082 119.624 171.606 152.5H141.785C139.057 119.659 133.366 83.1913 125.727 53.9098H144.996ZM116.735 25.5H130.046C133.313 30.4853 136.455 36.0245 139.453 42H122.388C120.589 36.0417 118.701 30.5029 116.735 25.5Z" stroke="black" stroke-opacity="0.2"/>
</svg>
