<svg width="235" height="303" viewBox="0 0 235 303" fill="none" xmlns="http://www.w3.org/2000/svg">
<path d="M206.547 55.1729L178.666 67.2528M206.547 55.1729L193.174 50.0266M206.547 55.1729L201.333 68.3724" stroke="black" stroke-opacity="0.2"/>
<path d="M204.096 278.439L181.116 258.723M204.096 278.439L203.095 264.307M204.096 278.439L189.778 279.428" stroke="black" stroke-opacity="0.2"/>
<path d="M30.9048 278.439L53.8846 258.723M30.9048 278.439L31.906 264.307M30.9048 278.439L45.2234 279.428" stroke="black" stroke-opacity="0.2"/>
<path d="M234.168 169.991L203.822 172.454M234.168 169.991L223.221 160.828M234.168 169.991L224.885 180.796" stroke="black" stroke-opacity="0.2"/>
<path d="M0.831533 169.991L31.1777 172.454M0.831533 169.991L11.7786 160.828M0.831533 169.991L10.1153 180.796" stroke="black" stroke-opacity="0.2"/>
<path d="M28.4532 55.1729L56.3338 67.2528M28.4532 55.1729L41.8263 50.0266M28.4532 55.1729L33.6671 68.3724" stroke="black" stroke-opacity="0.2"/>
<path d="M92.9 4L69.1563 26.5843C68.8678 26.8587 68.6369 27.1877 68.4769 27.5522L27.6588 120.538C27.5246 120.844 27.4424 121.17 27.4155 121.503L18.102 236.737C18.0368 237.545 18.3008 238.344 18.834 238.954L69.16 296.5M139.1 4L162.844 26.5843C163.132 26.8587 163.363 27.1877 163.523 27.5522L204.341 120.538C204.475 120.844 204.558 121.17 204.584 121.503L213.898 236.737C213.963 237.545 213.699 238.344 213.166 238.954L162.84 296.5" stroke="black" stroke-width="2"/>
<path d="M204 120.5C204 114.977 164.601 110.5 116 110.5C67.3989 110.5 28 114.977 28 120.5" stroke="black" stroke-dasharray="2 5"/>
<path d="M204 120.5C204 126.023 164.601 130.5 116 130.5C67.3989 130.5 28 126.023 28 120.5" stroke="black" stroke-width="2"/>
<path d="M163 27.2C163 23.8862 141.957 21.2 116 21.2C90.0426 21.2 69 23.8862 69 27.2" stroke="black" stroke-dasharray="2 5"/>
<path d="M163 27.1999C163 30.5136 141.957 33.1999 116 33.1999C90.0426 33.1999 69 30.5136 69 27.1999" stroke="black" stroke-width="2"/>
<path d="M163 296C163 292.686 141.957 290 116 290C90.0426 290 69 292.686 69 296" stroke="black" stroke-dasharray="2 5"/>
<path d="M163 296C163 299.314 141.957 302 116 302C90.0426 302 69 299.314 69 296" stroke="black" stroke-width="2"/>
<ellipse cx="116" cy="4" rx="23" ry="3" stroke="black" stroke-width="2"/>
<path d="M213 238.2C213 232.125 169.572 227.2 116 227.2C62.4283 227.2 19 232.125 19 238.2" stroke="black" stroke-dasharray="2 5"/>
<path d="M213 238.2C213 244.275 169.572 249.2 116 249.2C62.4283 249.2 19 244.275 19 238.2" stroke="black" stroke-width="2"/>
</svg>
