<svg width="120" height="171" viewBox="0 0 120 171" fill="none" xmlns="http://www.w3.org/2000/svg">
<path d="M118.253 115.805C113.204 144.34 90.1306 169.924 59.9099 169.924C29.6891 169.924 6.61557 144.34 1.56643 115.805C0.0560991 107.27 0.68687 95.7957 3.08065 83.3485C5.47213 70.9132 9.61264 57.5616 15.0782 45.2905C20.546 33.0142 27.3245 21.8545 34.9745 13.7763C42.6315 5.69072 51.0827 0.771484 59.9099 0.771484C68.7371 0.771484 77.1883 5.69072 84.8453 13.7763C92.4953 21.8545 99.2737 33.0142 104.742 45.2905C110.207 57.5616 114.348 70.9132 116.739 83.3485C119.133 95.7957 119.764 107.27 118.253 115.805Z" stroke="black" stroke-width="1.5"/>
<path d="M82.8605 30.6355C89.8361 46.3941 95.0522 66.0292 97.5782 83.7606H81.4155C79.8966 66.0635 76.7595 46.4538 72.5529 30.6355H82.8605ZM67.5817 15.1954H74.5536C76.2827 17.7771 77.9493 20.6323 79.5441 23.7063H70.5629C69.6121 20.648 68.6167 17.7931 67.5817 15.1954Z" stroke="black" stroke-opacity="0.2"/>
</svg>
