<svg width="131" height="167" viewBox="0 0 131 167" fill="none" xmlns="http://www.w3.org/2000/svg">
<path d="M52.6513 3.36954L39.6195 15.456C39.3252 15.7289 39.0887 16.0581 38.9239 16.4241L16.386 66.4865C16.246 66.7975 16.16 67.1302 16.1319 67.4702L11.0106 129.255C10.9424 130.077 11.216 130.892 11.767 131.506L39.4192 162.337M78.4022 3.36954L91.4341 15.456C91.7283 15.7289 91.9648 16.0581 92.1296 16.4241L114.667 66.4865C114.807 66.7975 114.893 67.1302 114.922 67.4702L120.043 129.255C120.111 130.077 119.837 130.892 119.286 131.506L91.6343 162.337" stroke="black" stroke-width="1.5"/>
<path d="M114.576 66.6844C114.576 63.6828 92.616 61.2496 65.5268 61.2496C38.4377 61.2496 16.4777 63.6828 16.4777 66.6844" stroke="black" stroke-dasharray="2 5"/>
<path d="M114.576 66.6849C114.576 69.6864 92.616 72.1196 65.5268 72.1196C38.4377 72.1196 16.4777 69.6864 16.4777 66.6849" stroke="black" stroke-width="1.5"/>
<path d="M91.7235 15.978C91.7235 14.1771 79.9948 12.7172 65.5268 12.7172C51.0587 12.7172 39.3301 14.1771 39.3301 15.978" stroke="black" stroke-dasharray="2 5"/>
<path d="M91.7235 15.9777C91.7235 17.7787 79.9948 19.2386 65.5268 19.2386C51.0587 19.2386 39.3301 17.7787 39.3301 15.9777" stroke="black" stroke-width="1.5"/>
<path d="M91.7235 162.065C91.7235 160.264 79.9948 158.804 65.5268 158.804C51.0587 158.804 39.3301 160.264 39.3301 162.065" stroke="black" stroke-dasharray="2 5"/>
<path d="M91.7235 162.065C91.7235 163.866 79.9948 165.326 65.5268 165.326C51.0587 165.326 39.3301 163.866 39.3301 162.065" stroke="black" stroke-width="1.5"/>
<ellipse cx="65.5268" cy="3.36847" rx="12.8197" ry="1.63043" stroke="black" stroke-width="1.5"/>
<path d="M119.592 130.653C119.592 127.351 95.3863 124.674 65.5268 124.674C35.6672 124.674 11.4612 127.351 11.4612 130.653" stroke="black" stroke-dasharray="2 5"/>
<path d="M119.592 130.652C119.592 133.954 95.3863 136.63 65.5268 136.63C35.6672 136.63 11.4612 133.954 11.4612 130.652" stroke="black" stroke-width="1.5"/>
<path d="M114.428 35.5203L99.1173 42.0738M114.428 35.5203L107.084 32.7284M114.428 35.5203L111.565 42.6813" stroke="black" stroke-opacity="0.2"/>
<path d="M113.083 156.645L100.463 145.948M113.083 156.645L112.533 148.978M113.083 156.645L105.219 157.181" stroke="black" stroke-opacity="0.2"/>
<path d="M17.9719 156.645L30.5916 145.948M17.9719 156.645L18.5218 148.978M17.9719 156.645L25.8352 157.181" stroke="black" stroke-opacity="0.2"/>
<path d="M129.597 97.811L112.932 99.147M129.597 97.811L123.585 92.8398M129.597 97.811L124.499 103.673" stroke="black" stroke-opacity="0.2"/>
<path d="M1.45675 97.811L18.1218 99.147M1.45675 97.811L7.46848 92.8398M1.45675 97.811L6.55507 103.673" stroke="black" stroke-opacity="0.2"/>
<path d="M16.6256 35.5203L31.9367 42.0738M16.6256 35.5203L23.9697 32.7284M16.6256 35.5203L19.4889 42.6813" stroke="black" stroke-opacity="0.2"/>
</svg>
