<svg width="18" height="18" viewBox="0 0 18 18" fill="none" xmlns="http://www.w3.org/2000/svg">
<path d="M9.00005 0.25C4.16758 0.25 0.25 4.18396 0.25 9.03663C0.25 13.3889 3.40457 16.9933 7.54072 17.6913V10.8698H5.42995V8.41497H7.54072V6.6049C7.54072 4.5047 8.81812 3.36021 10.6841 3.36021C11.5778 3.36021 12.3458 3.42708 12.5688 3.45654V5.6518L11.2746 5.65243C10.26 5.65243 10.0644 6.13648 10.0644 6.84702V8.41371H12.4853L12.1695 10.8685H10.0644V17.75C14.3937 17.2209 17.75 13.5247 17.75 9.03412C17.75 4.18396 13.8324 0.25 9.00005 0.25Z" fill="black"/>
</svg>
