<svg width="16" height="16" viewBox="0 0 16 16" fill="none" xmlns="http://www.w3.org/2000/svg">
<path d="M8.00004 1C4.13407 1 1 4.14717 1 8.02931C1 11.5111 3.52365 14.3947 6.83257 14.953V9.49581H5.14396V7.53198H6.83257V6.08392C6.83257 4.40376 7.85449 3.48817 9.34729 3.48817C10.0623 3.48817 10.6767 3.54167 10.855 3.56523V5.32144L9.81967 5.32195C9.00802 5.32195 8.85153 5.70918 8.85153 6.27762V7.53097H10.7882L10.5356 9.4948H8.85153V15C12.3149 14.5767 15 11.6197 15 8.02729C15 4.14717 11.8659 1 8.00004 1Z" fill="white"/>
</svg>
