<svg width="18" height="18" viewBox="0 0 18 18" fill="none" xmlns="http://www.w3.org/2000/svg">
<path fill-rule="evenodd" clip-rule="evenodd" d="M8.87547 4.50622C6.39314 4.50622 4.3791 6.51975 4.3791 9.00174C4.3791 11.4837 6.39314 13.4973 8.87547 13.4973C11.3579 13.4973 13.3719 11.4837 13.3719 9.00174C13.3719 6.51975 11.3579 4.50622 8.87547 4.50622ZM8.87547 11.9179C7.26507 11.9179 5.95879 10.612 5.95879 9.00174C5.95879 7.3915 7.26507 6.0856 8.87547 6.0856C10.486 6.0856 11.7922 7.3915 11.7922 9.00174C11.7922 10.612 10.486 11.9179 8.87547 11.9179Z" fill="black"/>
<path d="M13.5496 5.37797C14.1294 5.37797 14.5995 4.90804 14.5995 4.32847C14.5995 3.74877 14.1294 3.27898 13.5496 3.27898C12.97 3.27898 12.4999 3.74877 12.4999 4.32847C12.4999 4.90804 12.97 5.37797 13.5496 5.37797Z" fill="black"/>
<path fill-rule="evenodd" clip-rule="evenodd" d="M17.5776 5.39506C17.5366 4.46522 17.3862 3.82596 17.1708 3.27203C16.9485 2.68405 16.6066 2.15763 16.1586 1.72002C15.7209 1.27559 15.1909 0.930257 14.6096 0.711517C14.0524 0.496116 13.4163 0.345749 12.4863 0.304752C11.5493 0.260283 11.2519 0.25 8.87548 0.25C6.49906 0.25 6.20161 0.260283 5.26812 0.30128C4.33809 0.342277 3.69871 0.492777 3.14481 0.708045C2.55659 0.930257 2.03007 1.27212 1.59237 1.72002C1.14786 2.15763 0.802591 2.68752 0.583676 3.26869C0.368233 3.82596 0.217837 4.46175 0.176833 5.39159C0.132355 6.32838 0.12207 6.62578 0.12207 9.00174C0.12207 11.3777 0.132355 11.6751 0.17336 12.6084C0.214365 13.5383 0.364894 14.1775 0.580337 14.7314C0.802591 15.3194 1.14786 15.8458 1.59237 16.2835C2.03007 16.7279 2.56006 17.0732 3.14134 17.292C3.69871 17.5074 4.33462 17.6577 5.26478 17.6987C6.19814 17.7399 6.49572 17.75 8.87214 17.75C11.2486 17.75 11.546 17.7399 12.4795 17.6987C13.4095 17.6577 14.0489 17.5074 14.6028 17.292C15.7791 16.8372 16.7091 15.9074 17.1639 14.7314C17.3792 14.1742 17.5298 13.5383 17.5708 12.6084C17.6118 11.6751 17.6221 11.3777 17.6221 9.00174C17.6221 6.62578 17.6186 6.32838 17.5776 5.39506ZM16.0014 12.54C15.9637 13.3947 15.8201 13.8562 15.7005 14.1639C15.4063 14.9263 14.8011 15.5314 14.0386 15.8254C13.7309 15.9451 13.2659 16.0886 12.4145 16.1261C11.4912 16.1673 11.2144 16.1774 8.87895 16.1774C6.54354 16.1774 6.26319 16.1673 5.34331 16.1261C4.48849 16.0886 4.02688 15.9451 3.71915 15.8254C3.33968 15.6852 2.99428 15.463 2.71393 15.1724C2.42329 14.8886 2.20103 14.5468 2.06079 14.1674C1.94111 13.8597 1.79753 13.3947 1.75999 12.5435C1.71886 11.6205 1.70871 11.3435 1.70871 9.00855C1.70871 6.67358 1.71886 6.39328 1.75999 5.47372C1.79753 4.61906 1.94111 4.15754 2.06079 3.84986C2.20103 3.47034 2.42329 3.12514 2.7174 2.8447C3.00109 2.55411 3.34302 2.3319 3.72262 2.19182C4.03036 2.07217 4.49543 1.92861 5.34679 1.89095C6.27 1.84995 6.54701 1.83967 8.88229 1.83967C11.2212 1.83967 11.4981 1.84995 12.4179 1.89095C13.2727 1.92861 13.7344 2.07217 14.0421 2.19182C14.4216 2.3319 14.767 2.55411 15.0473 2.8447C15.338 3.12847 15.5602 3.47034 15.7005 3.84986C15.8201 4.15754 15.9637 4.6224 16.0014 5.47372C16.0424 6.39675 16.0527 6.67358 16.0527 9.00855C16.0527 11.3435 16.0424 11.617 16.0014 12.54Z" fill="black"/>
</svg>
