<svg width="16" height="16" viewBox="0 0 16 16" fill="none" xmlns="http://www.w3.org/2000/svg">
<path fill-rule="evenodd" clip-rule="evenodd" d="M7.90043 4.40497C5.91456 4.40497 4.30333 6.0158 4.30333 8.00139C4.30333 9.98698 5.91456 11.5978 7.90043 11.5978C9.8864 11.5978 11.4975 9.98698 11.4975 8.00139C11.4975 6.0158 9.8864 4.40497 7.90043 4.40497ZM7.90043 10.3343C6.6121 10.3343 5.56708 9.28958 5.56708 8.00139C5.56708 6.7132 6.6121 5.66848 7.90043 5.66848C9.18886 5.66848 10.2338 6.7132 10.2338 8.00139C10.2338 9.28958 9.18886 10.3343 7.90043 10.3343Z" fill="white"/>
<path d="M11.6398 5.10238C12.1036 5.10238 12.4796 4.72643 12.4796 4.26278C12.4796 3.79902 12.1036 3.42318 11.6398 3.42318C11.176 3.42318 10.8 3.79902 10.8 4.26278C10.8 4.72643 11.176 5.10238 11.6398 5.10238Z" fill="white"/>
<path fill-rule="evenodd" clip-rule="evenodd" d="M14.8621 5.11605C14.8293 4.37217 14.709 3.86077 14.5366 3.41762C14.3588 2.94724 14.0853 2.52611 13.7269 2.17601C13.3768 1.82048 12.9528 1.54421 12.4877 1.36921C12.0419 1.19689 11.5331 1.0766 10.7891 1.0438C10.0395 1.00823 9.80156 1 7.90043 1C5.9993 1 5.76134 1.00823 5.01454 1.04102C4.27052 1.07382 3.75902 1.19422 3.3159 1.36644C2.84532 1.54421 2.4241 1.8177 2.07394 2.17601C1.71834 2.52611 1.44212 2.95002 1.26699 3.41495C1.09464 3.86077 0.974319 4.3694 0.941515 5.11327C0.905933 5.8627 0.897705 6.10062 0.897705 8.00139C0.897705 9.90216 0.905933 10.1401 0.938737 10.8867C0.971541 11.6306 1.09196 12.142 1.26432 12.5852C1.44212 13.0555 1.71834 13.4767 2.07394 13.8268C2.4241 14.1823 2.84809 14.4586 3.31312 14.6336C3.75902 14.8059 4.26775 14.9262 5.01187 14.959C5.75856 14.9919 5.99663 15 7.89776 15C9.79889 15 10.0369 14.9919 10.7836 14.959C11.5277 14.9262 12.0392 14.8059 12.4823 14.6336C13.4233 14.2698 14.1674 13.5259 14.5312 12.5852C14.7034 12.1393 14.8239 11.6306 14.8567 10.8867C14.8895 10.1401 14.8977 9.90216 14.8977 8.00139C14.8977 6.10062 14.8949 5.8627 14.8621 5.11605ZM13.6011 10.832C13.571 11.5158 13.4562 11.885 13.3604 12.1311C13.1251 12.741 12.641 13.2251 12.0309 13.4603C11.7848 13.556 11.4128 13.6709 10.7316 13.7009C9.99304 13.7338 9.77153 13.7419 7.90321 13.7419C6.03488 13.7419 5.8106 13.7338 5.0747 13.7009C4.39084 13.6709 4.02156 13.556 3.77537 13.4603C3.4718 13.3482 3.19547 13.1704 2.97119 12.9379C2.73868 12.7109 2.56087 12.4374 2.44868 12.1339C2.35294 11.8877 2.23807 11.5158 2.20804 10.8348C2.17513 10.0964 2.16701 9.87481 2.16701 8.00684C2.16701 6.13887 2.17513 5.91463 2.20804 5.17898C2.23807 4.49525 2.35294 4.12603 2.44868 3.87989C2.56087 3.57627 2.73868 3.30011 2.97397 3.07576C3.20092 2.84329 3.47447 2.66552 3.77814 2.55345C4.02433 2.45773 4.3964 2.34289 5.07748 2.31276C5.81605 2.27996 6.03766 2.27174 7.90588 2.27174C9.77698 2.27174 9.99849 2.27996 10.7344 2.31276C11.4182 2.34289 11.7875 2.45773 12.0337 2.55345C12.3373 2.66552 12.6136 2.84329 12.8379 3.07576C13.0704 3.30278 13.2482 3.57627 13.3604 3.87989C13.4562 4.12603 13.571 4.49792 13.6011 5.17898C13.634 5.9174 13.6422 6.13887 13.6422 8.00684C13.6422 9.87481 13.634 10.0936 13.6011 10.832Z" fill="white"/>
</svg>
