<svg width="160" height="29" viewBox="0 0 160 29" fill="none" xmlns="http://www.w3.org/2000/svg">
<path d="M91.6324 13.4873C92.5526 13.8291 93.5188 14 94.531 14C95.6221 14 96.5422 13.8357 97.2915 13.507C98.0408 13.1784 98.593 12.738 98.9479 12.1859C99.316 11.6338 99.5 11.0225 99.5 10.3521C99.5 9.53709 99.2831 8.89296 98.8493 8.41972C98.4286 7.93333 97.916 7.57183 97.3113 7.33521C96.7066 7.09859 95.8981 6.8554 94.8859 6.60563C93.9789 6.38216 93.2624 6.17183 92.7366 5.97465C92.2108 5.77746 91.7704 5.49484 91.4155 5.12676C91.0606 4.75869 90.8831 4.26573 90.8831 3.64789C90.8831 2.83286 91.2117 2.16901 91.869 1.65634C92.5263 1.14366 93.4925 0.887324 94.7676 0.887324C95.4117 0.887324 96.0624 0.985916 96.7197 1.1831C97.3901 1.38028 98.0014 1.66948 98.5535 2.0507L98.9282 1.24225C98.3892 0.861034 97.7516 0.558686 97.0155 0.335212C96.2793 0.111737 95.53 0 94.7676 0C93.6765 0 92.7629 0.164319 92.0268 0.492958C91.3038 0.821596 90.7648 1.26854 90.4099 1.8338C90.0549 2.38592 89.8775 2.99718 89.8775 3.66761C89.8775 4.49577 90.0878 5.15962 90.5084 5.65915C90.9423 6.14554 91.4615 6.50704 92.0662 6.74366C92.684 6.98028 93.4991 7.22347 94.5113 7.47324C95.4052 7.68357 96.115 7.88732 96.6408 8.08451C97.1667 8.28169 97.607 8.56432 97.962 8.93239C98.3169 9.30047 98.4944 9.79343 98.4944 10.4113C98.4944 11.2131 98.1592 11.8638 97.4887 12.3634C96.8183 12.8629 95.8258 13.1127 94.5113 13.1127C93.6042 13.1127 92.7366 12.9549 91.9084 12.6394C91.0934 12.3108 90.4427 11.8901 89.9563 11.3775L89.5028 12.1268C90.0155 12.6789 90.7253 13.1324 91.6324 13.4873Z" fill="white"/>
<path d="M12.2845 7.61123L12.3239 13.9014H16.5634L16.5239 0.0985501H12.6986L8.32113 7.45348L3.82535 0.0985501H0V13.9014H4.23944V7.82813L7.23662 12.6591H9.28732L12.2845 7.61123Z" fill="white"/>
<path d="M33.5 13.9014V10.3915H26.5986V8.57742H32.4352V5.22531H26.5986V3.60841H33.5V0.0985501H22.0239V13.9014H33.5Z" fill="white"/>
<path d="M42.0423 3.707H38V0.0985501H50.738V3.707H46.6958V13.9014H42.0423V3.707Z" fill="white"/>
<path fill-rule="evenodd" clip-rule="evenodd" d="M59.0169 11.4957H64.262L65.1887 13.9014H70L63.9662 0.0985501H59.3916L53.3577 13.9014H58.0901L59.0169 11.4957ZM61.6394 4.6732L62.9803 8.14362H60.2986L61.6394 4.6732Z" fill="white"/>
<path d="M74 0.0985501H78.6535V10.2929H84.8845V13.9014H74V0.0985501Z" fill="white"/>
<path d="M108.494 1.00563H103.525V0.0985914H114.469V1.00563H109.5V13.9014H108.494V1.00563Z" fill="white"/>
<path d="M125.939 13.9014V9.1493L131.5 0.0985914H130.455L125.466 8.22254L120.477 0.0985914H119.373L124.934 9.1493V13.9014H125.939Z" fill="white"/>
<path d="M136.994 0.0985914H138V12.9944H145.946V13.9014H136.994V0.0985914Z" fill="white"/>
<path d="M160 13.9014V12.9944H151.482V7.33521H158.837V6.44789H151.482V1.00563H160V0.0985914H150.476V13.9014H160Z" fill="white"/>
<path d="M30.0412 22.074C29.7827 22.074 29.586 22.1454 29.4511 22.2881C29.3219 22.4309 29.2572 22.6421 29.2572 22.9219V23.453H30.6229V23.9669H29.2741V27.9583H28.6756V23.9669H27.8831V23.453H28.6756V22.8962C28.6756 22.4851 28.7908 22.1596 29.0212 21.9198C29.2572 21.68 29.5888 21.5601 30.016 21.5601C30.1846 21.5601 30.3475 21.5858 30.5049 21.6371C30.6623 21.6828 30.7943 21.7514 30.9011 21.8427L30.6988 22.2967C30.5246 22.1482 30.3054 22.074 30.0412 22.074Z" fill="white"/>
<path d="M6.12875 27.9583V21.9626H5.61451L3.07702 26.408L0.514242 21.9626H0V27.9583H0.598543V23.1875L2.91685 27.196H3.2119L5.5302 23.1618V27.9583H6.12875Z" fill="white"/>
<path fill-rule="evenodd" clip-rule="evenodd" d="M11.883 23.8641C11.5739 23.5672 11.1299 23.4187 10.551 23.4187C10.2026 23.4187 9.87101 23.473 9.55628 23.5815C9.24155 23.6843 8.97178 23.8327 8.74698 24.0269L9.01675 24.4808C9.20221 24.3152 9.4242 24.1868 9.68273 24.0954C9.94126 23.9983 10.211 23.9498 10.492 23.9498C10.9023 23.9498 11.2142 24.0526 11.4278 24.2581C11.6413 24.458 11.7481 24.7521 11.7481 25.1404V25.4144H10.3403C9.74455 25.4144 9.30899 25.5315 9.03361 25.7656C8.76384 25.9997 8.62896 26.3081 8.62896 26.6907C8.62896 27.0847 8.77508 27.4016 9.06733 27.6414C9.35957 27.8813 9.75298 28.0012 10.2476 28.0012C10.6072 28.0012 10.9163 27.9355 11.1749 27.8042C11.439 27.6728 11.6385 27.4901 11.7734 27.256V27.9583H12.3467V25.1661C12.3467 24.5893 12.1921 24.1553 11.883 23.8641ZM11.2086 27.2903C10.9669 27.4444 10.6775 27.5215 10.3403 27.5215C9.98622 27.5215 9.71083 27.4473 9.51413 27.2988C9.31742 27.1446 9.21907 26.9362 9.21907 26.6735C9.21907 26.1368 9.59843 25.8684 10.3571 25.8684H11.7481V26.605C11.6301 26.902 11.4503 27.1304 11.2086 27.2903Z" fill="white"/>
<path d="M17.3065 23.4187C17.8629 23.4187 18.3041 23.5843 18.6301 23.9155C18.9616 24.241 19.1274 24.7178 19.1274 25.3459V27.9583H18.5289V25.4059C18.5289 24.9376 18.4137 24.5808 18.1833 24.3352C17.9528 24.0897 17.6241 23.9669 17.1969 23.9669C16.7192 23.9669 16.3399 24.1125 16.0589 24.4037C15.7835 24.6893 15.6458 25.0861 15.6458 25.5943V27.9583H15.0472V23.453H15.6205V24.2838C15.7835 24.0097 16.0083 23.7985 16.2949 23.65C16.5871 23.4958 16.9244 23.4187 17.3065 23.4187Z" fill="white"/>
<path d="M25.8232 27.9583V23.453H25.2246V25.817C25.2246 26.3309 25.0898 26.7335 24.82 27.0247C24.5502 27.3102 24.1821 27.453 23.7156 27.453C23.2885 27.453 22.9597 27.3302 22.7293 27.0847C22.4989 26.8391 22.3837 26.4794 22.3837 26.0055V23.453H21.7851V26.0654C21.7851 26.6992 21.9509 27.1818 22.2825 27.513C22.6197 27.8384 23.0778 28.0012 23.6566 28.0012C24.0107 28.0012 24.3254 27.9269 24.6008 27.7785C24.8762 27.6243 25.0926 27.4102 25.2499 27.1361V27.9583H25.8232Z" fill="white"/>
<path fill-rule="evenodd" clip-rule="evenodd" d="M35.3068 23.8641C34.9976 23.5672 34.5537 23.4187 33.9748 23.4187C33.6263 23.4187 33.2947 23.473 32.98 23.5815C32.6653 23.6843 32.3955 23.8327 32.1707 24.0269L32.4405 24.4808C32.6259 24.3152 32.8479 24.1868 33.1065 24.0954C33.365 23.9983 33.6348 23.9498 33.9158 23.9498C34.326 23.9498 34.638 24.0526 34.8515 24.2581C35.0651 24.458 35.1719 24.7521 35.1719 25.1404V25.4144H33.764C33.1683 25.4144 32.7327 25.5315 32.4573 25.7656C32.1876 25.9997 32.0527 26.3081 32.0527 26.6907C32.0527 27.0847 32.1988 27.4016 32.4911 27.6414C32.7833 27.8813 33.1767 28.0012 33.6713 28.0012C34.031 28.0012 34.3401 27.9355 34.5986 27.8042C34.8628 27.6728 35.0623 27.4901 35.1972 27.256V27.9583H35.7704V25.1661C35.7704 24.5893 35.6159 24.1553 35.3068 23.8641ZM34.6323 27.2903C34.3907 27.4444 34.1012 27.5215 33.764 27.5215C33.41 27.5215 33.1346 27.4473 32.9379 27.2988C32.7412 27.1446 32.6428 26.9362 32.6428 26.6735C32.6428 26.1368 33.0222 25.8684 33.7809 25.8684H35.1719V26.605C35.0538 26.902 34.874 27.1304 34.6323 27.2903Z" fill="white"/>
<path d="M40.3252 28.0012C39.8869 28.0012 39.4934 27.9041 39.145 27.71C38.8022 27.5158 38.5324 27.2446 38.3357 26.8962C38.139 26.5422 38.0406 26.1454 38.0406 25.7057C38.0406 25.266 38.139 24.872 38.3357 24.5237C38.5324 24.1753 38.8022 23.9041 39.145 23.71C39.4934 23.5158 39.8869 23.4187 40.3252 23.4187C40.7074 23.4187 41.0474 23.4958 41.3453 23.65C41.6488 23.7985 41.8876 24.0183 42.0618 24.3095L41.615 24.6179C41.4689 24.3952 41.2835 24.2296 41.0586 24.1211C40.8338 24.0069 40.5894 23.9498 40.3252 23.9498C40.0049 23.9498 39.7154 24.024 39.4569 24.1725C39.204 24.3152 39.0045 24.5208 38.8584 24.7892C38.7179 25.0576 38.6476 25.3631 38.6476 25.7057C38.6476 26.054 38.7179 26.3623 38.8584 26.6307C39.0045 26.8934 39.204 27.099 39.4569 27.2474C39.7154 27.3902 40.0049 27.4616 40.3252 27.4616C40.5894 27.4616 40.8338 27.4073 41.0586 27.2988C41.2835 27.1903 41.4689 27.0247 41.615 26.802L42.0618 27.1104C41.8876 27.4016 41.6488 27.6243 41.3453 27.7785C41.0418 27.9269 40.7018 28.0012 40.3252 28.0012Z" fill="white"/>
<path d="M46.2755 27.9241C46.4442 27.867 46.5847 27.787 46.6971 27.6843L46.4863 27.2474C46.402 27.3217 46.3008 27.3788 46.1828 27.4187C46.0704 27.4587 45.9524 27.4787 45.8288 27.4787C45.5815 27.4787 45.3904 27.4102 45.2555 27.2731C45.1262 27.1304 45.0616 26.9248 45.0616 26.6564V23.9669H46.4104V23.453H45.0616V22.468H44.4631V23.453H43.6706V23.9669H44.4631V26.6907C44.4631 27.1075 44.5755 27.4302 44.8003 27.6586C45.0251 27.887 45.3454 28.0012 45.7613 28.0012C45.9412 28.0012 46.1126 27.9755 46.2755 27.9241Z" fill="white"/>
<path d="M52.8574 27.9583H52.2842V27.1361C52.1268 27.4102 51.9104 27.6243 51.635 27.7785C51.3597 27.9269 51.0449 28.0012 50.6909 28.0012C50.112 28.0012 49.6539 27.8384 49.3167 27.513C48.9851 27.1818 48.8194 26.6992 48.8194 26.0654V23.453H49.4179V26.0055C49.4179 26.4794 49.5331 26.8391 49.7635 27.0847C49.994 27.3302 50.3227 27.453 50.7499 27.453C51.2163 27.453 51.5845 27.3102 51.8542 27.0247C52.124 26.7335 52.2589 26.3309 52.2589 25.817V23.453H52.8574V27.9583Z" fill="white"/>
<path d="M56.8057 23.65C56.5303 23.8042 56.3224 24.0326 56.1819 24.3352V23.453H55.6086V27.9583H56.2072V25.6628C56.2072 25.1375 56.3392 24.7292 56.6034 24.438C56.8675 24.1468 57.2328 24.0012 57.6993 24.0012L57.8426 24.0097V23.4187C57.4324 23.4187 57.0867 23.4958 56.8057 23.65Z" fill="white"/>
<path fill-rule="evenodd" clip-rule="evenodd" d="M63.8211 25.8941H60.1118C60.1455 26.3623 60.3225 26.7421 60.6429 27.0333C60.9632 27.3188 61.3679 27.4616 61.8568 27.4616C62.1322 27.4616 62.3851 27.413 62.6156 27.3159C62.846 27.2132 63.0455 27.0647 63.2141 26.8706L63.5513 27.2646C63.3546 27.5044 63.1073 27.6871 62.8094 27.8127C62.5172 27.9384 62.194 28.0012 61.84 28.0012C61.3848 28.0012 60.9801 27.9041 60.626 27.71C60.2776 27.5101 60.005 27.236 59.8083 26.8877C59.6116 26.5394 59.5132 26.1454 59.5132 25.7057C59.5132 25.266 59.606 24.872 59.7914 24.5237C59.9825 24.1753 60.2411 23.9041 60.567 23.71C60.8986 23.5158 61.2695 23.4187 61.6798 23.4187C62.0901 23.4187 62.4582 23.5158 62.7842 23.71C63.1101 23.9041 63.3658 24.1753 63.5513 24.5237C63.7368 24.8663 63.8295 25.2603 63.8295 25.7057L63.8211 25.8941ZM61.6798 23.9412C61.2527 23.9412 60.893 24.0811 60.6007 24.3609C60.3141 24.635 60.1511 24.9947 60.1118 25.4401H63.2563C63.2169 24.9947 63.0511 24.635 62.7589 24.3609C62.4722 24.0811 62.1125 23.9412 61.6798 23.9412Z" fill="white"/>
<path fill-rule="evenodd" clip-rule="evenodd" d="M70.0614 27.71C70.4042 27.9041 70.7892 28.0012 71.2163 28.0012C71.6435 28.0012 72.0284 27.9041 72.3713 27.71C72.7141 27.5101 72.981 27.236 73.1721 26.8877C73.3688 26.5394 73.4672 26.1454 73.4672 25.7057C73.4672 25.266 73.3688 24.872 73.1721 24.5237C72.981 24.1753 72.7141 23.9041 72.3713 23.71C72.0284 23.5158 71.6435 23.4187 71.2163 23.4187C70.7892 23.4187 70.4042 23.5158 70.0614 23.71C69.7186 23.9041 69.4488 24.1753 69.2521 24.5237C69.0554 24.872 68.957 25.266 68.957 25.7057C68.957 26.1454 69.0554 26.5394 69.2521 26.8877C69.4488 27.236 69.7186 27.5101 70.0614 27.71ZM72.0593 27.2474C71.8121 27.3902 71.5311 27.4616 71.2163 27.4616C70.9016 27.4616 70.6178 27.3902 70.3649 27.2474C70.1176 27.099 69.9209 26.8905 69.7748 26.6222C69.6343 26.3538 69.564 26.0483 69.564 25.7057C69.564 25.3631 69.6343 25.0576 69.7748 24.7892C69.9209 24.5208 70.1176 24.3152 70.3649 24.1725C70.6178 24.024 70.9016 23.9498 71.2163 23.9498C71.5311 23.9498 71.8121 24.024 72.0593 24.1725C72.3122 24.3152 72.509 24.5208 72.6495 24.7892C72.79 25.0576 72.8602 25.3631 72.8602 25.7057C72.8602 26.0483 72.79 26.3538 72.6495 26.6222C72.509 26.8905 72.3122 27.099 72.0593 27.2474Z" fill="white"/>
<path d="M77.2309 22.074C76.9724 22.074 76.7757 22.1454 76.6408 22.2881C76.5115 22.4309 76.4469 22.6421 76.4469 22.9219V23.453H77.8126V23.9669H76.4637V27.9583H75.8652V23.9669H75.0727V23.453H75.8652V22.8962C75.8652 22.4851 75.9804 22.1596 76.2108 21.9198C76.4469 21.68 76.7785 21.5601 77.2056 21.5601C77.3742 21.5601 77.5372 21.5858 77.6945 21.6371C77.8519 21.6828 77.984 21.7514 78.0908 21.8427L77.8884 22.2967C77.7142 22.1482 77.495 22.074 77.2309 22.074Z" fill="white"/>
<path d="M89.232 27.9583V21.9626H88.7177L86.1802 26.408L83.6175 21.9626H83.1032V27.9583H83.7018V23.1875L86.0201 27.196H86.3151L88.6334 23.1618V27.9583H89.232Z" fill="white"/>
<path fill-rule="evenodd" clip-rule="evenodd" d="M95.9641 25.8941H92.2549C92.2886 26.3623 92.4656 26.7421 92.786 27.0333C93.1063 27.3188 93.5109 27.4616 93.9999 27.4616C94.2753 27.4616 94.5282 27.413 94.7586 27.3159C94.989 27.2132 95.1886 27.0647 95.3572 26.8706L95.6944 27.2646C95.4977 27.5044 95.2504 27.6871 94.9525 27.8127C94.6603 27.9384 94.3371 28.0012 93.983 28.0012C93.5278 28.0012 93.1232 27.9041 92.7691 27.71C92.4206 27.5101 92.1481 27.236 91.9514 26.8877C91.7547 26.5394 91.6563 26.1454 91.6563 25.7057C91.6563 25.266 91.749 24.872 91.9345 24.5237C92.1256 24.1753 92.3841 23.9041 92.7101 23.71C93.0417 23.5158 93.4126 23.4187 93.8229 23.4187C94.2331 23.4187 94.6013 23.5158 94.9272 23.71C95.2532 23.9041 95.5089 24.1753 95.6944 24.5237C95.8798 24.8663 95.9726 25.2603 95.9726 25.7057L95.9641 25.8941ZM93.8229 23.9412C93.3957 23.9412 93.036 24.0811 92.7438 24.3609C92.4572 24.635 92.2942 24.9947 92.2549 25.4401H95.3993C95.36 24.9947 95.1942 24.635 94.9019 24.3609C94.6153 24.0811 94.2556 23.9412 93.8229 23.9412Z" fill="white"/>
<path d="M100.179 27.9241C100.348 27.867 100.488 27.787 100.601 27.6843L100.39 27.2474C100.306 27.3217 100.205 27.3788 100.087 27.4187C99.9742 27.4587 99.8562 27.4787 99.7326 27.4787C99.4853 27.4787 99.2942 27.4102 99.1593 27.2731C99.03 27.1304 98.9654 26.9248 98.9654 26.6564V23.9669H100.314V23.453H98.9654V22.468H98.3669V23.453H97.5744V23.9669H98.3669V26.6907C98.3669 27.1075 98.4793 27.4302 98.7041 27.6586C98.9289 27.887 99.2492 28.0012 99.6651 28.0012C99.845 28.0012 100.016 27.9755 100.179 27.9241Z" fill="white"/>
<path fill-rule="evenodd" clip-rule="evenodd" d="M104.316 23.4187C104.895 23.4187 105.339 23.5672 105.648 23.8641C105.958 24.1553 106.112 24.5893 106.112 25.1661V27.9583H105.539V27.256C105.404 27.4901 105.204 27.6728 104.94 27.8042C104.682 27.9355 104.373 28.0012 104.013 28.0012C103.518 28.0012 103.125 27.8813 102.833 27.6414C102.541 27.4016 102.394 27.0847 102.394 26.6907C102.394 26.3081 102.529 25.9997 102.799 25.7656C103.074 25.5315 103.51 25.4144 104.106 25.4144H105.514V25.1404C105.514 24.7521 105.407 24.458 105.193 24.2581C104.98 24.0526 104.668 23.9498 104.257 23.9498C103.976 23.9498 103.707 23.9983 103.448 24.0954C103.19 24.1868 102.968 24.3152 102.782 24.4808L102.512 24.0269C102.737 23.8327 103.007 23.6843 103.322 23.5815C103.636 23.473 103.968 23.4187 104.316 23.4187ZM104.106 27.5215C104.443 27.5215 104.732 27.4444 104.974 27.2903C105.216 27.1304 105.396 26.902 105.514 26.605V25.8684H104.123C103.364 25.8684 102.985 26.1368 102.985 26.6735C102.985 26.9362 103.083 27.1446 103.28 27.2988C103.476 27.4473 103.752 27.5215 104.106 27.5215Z" fill="white"/>
<path d="M109.411 21.6029H108.813V27.9583H109.411V21.6029Z" fill="white"/>
<path fill-rule="evenodd" clip-rule="evenodd" d="M117.768 21.9626C118.521 21.9626 119.111 22.1454 119.538 22.5108C119.965 22.8763 120.179 23.3788 120.179 24.0183C120.179 24.6578 119.965 25.1603 119.538 25.5258C119.111 25.8855 118.521 26.0654 117.768 26.0654H116.183V27.9583H115.559V21.9626H117.768ZM117.751 25.5087C118.335 25.5087 118.782 25.3802 119.091 25.1232C119.4 24.8606 119.555 24.4923 119.555 24.0183C119.555 23.5329 119.4 23.1618 119.091 22.9048C118.782 22.6421 118.335 22.5108 117.751 22.5108H116.183V25.5087H117.751Z" fill="white"/>
<path d="M123.558 23.65C123.283 23.8042 123.075 24.0326 122.934 24.3352V23.453H122.361V27.9583H122.959V25.6628C122.959 25.1375 123.092 24.7292 123.356 24.438C123.62 24.1468 123.985 24.0012 124.452 24.0012L124.595 24.0097V23.4187C124.185 23.4187 123.839 23.4958 123.558 23.65Z" fill="white"/>
<path fill-rule="evenodd" clip-rule="evenodd" d="M128.525 28.0012C128.098 28.0012 127.713 27.9041 127.37 27.71C127.027 27.5101 126.757 27.236 126.561 26.8877C126.364 26.5394 126.266 26.1454 126.266 25.7057C126.266 25.266 126.364 24.872 126.561 24.5237C126.757 24.1753 127.027 23.9041 127.37 23.71C127.713 23.5158 128.098 23.4187 128.525 23.4187C128.952 23.4187 129.337 23.5158 129.68 23.71C130.023 23.9041 130.29 24.1753 130.481 24.5237C130.677 24.872 130.776 25.266 130.776 25.7057C130.776 26.1454 130.677 26.5394 130.481 26.8877C130.29 27.236 130.023 27.5101 129.68 27.71C129.337 27.9041 128.952 28.0012 128.525 28.0012ZM128.525 27.4616C128.84 27.4616 129.121 27.3902 129.368 27.2474C129.621 27.099 129.817 26.8905 129.958 26.6222C130.098 26.3538 130.169 26.0483 130.169 25.7057C130.169 25.3631 130.098 25.0576 129.958 24.7892C129.817 24.5208 129.621 24.3152 129.368 24.1725C129.121 24.024 128.84 23.9498 128.525 23.9498C128.21 23.9498 127.926 24.024 127.673 24.1725C127.426 24.3152 127.229 24.5208 127.083 24.7892C126.943 25.0576 126.873 25.3631 126.873 25.7057C126.873 26.0483 126.943 26.3538 127.083 26.6222C127.229 26.8905 127.426 27.099 127.673 27.2474C127.926 27.3902 128.21 27.4616 128.525 27.4616Z" fill="white"/>
<path fill-rule="evenodd" clip-rule="evenodd" d="M137.119 27.9583V21.6029H136.52V24.3095C136.335 24.0183 136.096 23.7985 135.804 23.65C135.517 23.4958 135.194 23.4187 134.834 23.4187C134.419 23.4187 134.042 23.5158 133.705 23.71C133.368 23.8984 133.103 24.1668 132.912 24.5151C132.721 24.8634 132.626 25.2603 132.626 25.7057C132.626 26.1511 132.721 26.5479 132.912 26.8962C133.103 27.2446 133.368 27.5158 133.705 27.71C134.042 27.9041 134.419 28.0012 134.834 28.0012C135.205 28.0012 135.537 27.9212 135.829 27.7613C136.127 27.6015 136.366 27.3702 136.546 27.0676V27.9583H137.119ZM135.72 27.2474C135.472 27.3902 135.194 27.4616 134.885 27.4616C134.57 27.4616 134.286 27.3902 134.034 27.2474C133.786 27.099 133.59 26.8905 133.443 26.6222C133.303 26.3538 133.233 26.0483 133.233 25.7057C133.233 25.3631 133.303 25.0576 133.443 24.7892C133.59 24.5208 133.786 24.3152 134.034 24.1725C134.286 24.024 134.57 23.9498 134.885 23.9498C135.194 23.9498 135.472 24.024 135.72 24.1725C135.973 24.3152 136.169 24.5208 136.31 24.7892C136.456 25.0576 136.529 25.3631 136.529 25.7057C136.529 26.0483 136.456 26.3538 136.31 26.6222C136.169 26.8905 135.973 27.099 135.72 27.2474Z" fill="white"/>
<path d="M143.857 27.9583H143.283V27.1361C143.126 27.4102 142.91 27.6243 142.634 27.7785C142.359 27.9269 142.044 28.0012 141.69 28.0012C141.111 28.0012 140.653 27.8384 140.316 27.513C139.984 27.1818 139.819 26.6992 139.819 26.0654V23.453H140.417V26.0055C140.417 26.4794 140.532 26.8391 140.763 27.0847C140.993 27.3302 141.322 27.453 141.749 27.453C142.216 27.453 142.584 27.3102 142.854 27.0247C143.123 26.7335 143.258 26.3309 143.258 25.817V23.453H143.857V27.9583Z" fill="white"/>
<path d="M147.265 27.71C147.614 27.9041 148.007 28.0012 148.446 28.0012C148.822 28.0012 149.162 27.9269 149.466 27.7785C149.769 27.6243 150.008 27.4016 150.182 27.1104L149.736 26.802C149.589 27.0247 149.404 27.1903 149.179 27.2988C148.954 27.4073 148.71 27.4616 148.446 27.4616C148.125 27.4616 147.836 27.3902 147.577 27.2474C147.324 27.099 147.125 26.8934 146.979 26.6307C146.838 26.3623 146.768 26.054 146.768 25.7057C146.768 25.3631 146.838 25.0576 146.979 24.7892C147.125 24.5208 147.324 24.3152 147.577 24.1725C147.836 24.024 148.125 23.9498 148.446 23.9498C148.71 23.9498 148.954 24.0069 149.179 24.1211C149.404 24.2296 149.589 24.3952 149.736 24.6179L150.182 24.3095C150.008 24.0183 149.769 23.7985 149.466 23.65C149.168 23.4958 148.828 23.4187 148.446 23.4187C148.007 23.4187 147.614 23.5158 147.265 23.71C146.923 23.9041 146.653 24.1753 146.456 24.5237C146.259 24.872 146.161 25.266 146.161 25.7057C146.161 26.1454 146.259 26.5422 146.456 26.8962C146.653 27.2446 146.923 27.5158 147.265 27.71Z" fill="white"/>
<path d="M154.818 27.6843C154.705 27.787 154.565 27.867 154.396 27.9241C154.233 27.9755 154.062 28.0012 153.882 28.0012C153.466 28.0012 153.146 27.887 152.921 27.6586C152.696 27.4302 152.584 27.1075 152.584 26.6907V23.9669H151.791V23.453H152.584V22.468H153.182V23.453H154.531V23.9669H153.182V26.6564C153.182 26.9248 153.247 27.1304 153.376 27.2731C153.511 27.4102 153.702 27.4787 153.949 27.4787C154.073 27.4787 154.191 27.4587 154.303 27.4187C154.421 27.3788 154.522 27.3217 154.607 27.2474L154.818 27.6843Z" fill="white"/>
<path d="M157.134 27.847C157.465 27.9498 157.811 28.0012 158.171 28.0012C158.744 28.0012 159.191 27.887 159.511 27.6586C159.837 27.4244 160 27.1104 160 26.7164C160 26.4252 159.924 26.1967 159.772 26.0312C159.621 25.8656 159.438 25.7485 159.224 25.68C159.011 25.6115 158.727 25.5429 158.373 25.4744C158.086 25.423 157.862 25.3745 157.699 25.3288C157.536 25.2774 157.398 25.2003 157.285 25.0975C157.179 24.9947 157.125 24.8577 157.125 24.6864C157.125 24.4637 157.221 24.2838 157.412 24.1468C157.609 24.0097 157.898 23.9412 158.28 23.9412C158.786 23.9412 159.222 24.0697 159.587 24.3267L159.848 23.8384C159.663 23.7128 159.427 23.6129 159.14 23.5386C158.853 23.4587 158.567 23.4187 158.28 23.4187C157.729 23.4187 157.3 23.5386 156.99 23.7785C156.681 24.0183 156.527 24.3267 156.527 24.7035C156.527 25.0062 156.603 25.2431 156.754 25.4144C156.912 25.5858 157.1 25.7085 157.319 25.7828C157.538 25.8513 157.828 25.9198 158.188 25.9883C158.457 26.034 158.674 26.0825 158.837 26.1339C159 26.1796 159.134 26.251 159.241 26.3481C159.348 26.4394 159.401 26.5679 159.401 26.7335C159.401 26.9676 159.303 27.1504 159.106 27.2817C158.915 27.4073 158.617 27.4701 158.213 27.4701C157.909 27.4701 157.617 27.4244 157.336 27.3331C157.055 27.236 156.822 27.1132 156.636 26.9648L156.367 27.4444C156.552 27.6043 156.808 27.7385 157.134 27.847Z" fill="white"/>
</svg>
