<svg width="18" height="13" viewBox="0 0 18 13" fill="none" xmlns="http://www.w3.org/2000/svg">
<path d="M17.3633 2.66683C17.1617 1.91729 16.5706 1.32644 15.821 1.12461C14.4515 0.75 8.97368 0.75 8.97368 0.75C8.97368 0.75 3.49605 0.75 2.12662 1.11041C1.39144 1.31202 0.78592 1.9174 0.58426 2.66683C0.223877 4.03585 0.223877 6.875 0.223877 6.875C0.223877 6.875 0.223877 9.72846 0.58426 11.0832C0.786134 11.8326 1.37702 12.4235 2.12673 12.6253C3.51047 13 8.97389 13 8.97389 13C8.97389 13 14.4515 13 15.821 12.6396C16.5707 12.4379 17.1617 11.847 17.3635 11.0976C17.7238 9.72846 17.7238 6.88942 17.7238 6.88942C17.7238 6.88942 17.7382 4.03585 17.3633 2.66683ZM7.22966 9.49791V4.25209L11.7848 6.875L7.22966 9.49791Z" fill="black"/>
</svg>
