<svg width="16" height="16" viewBox="0 0 16 16" fill="none" xmlns="http://www.w3.org/2000/svg">
<path d="M14.691 4.53347C14.5297 3.93383 14.0568 3.46115 13.4572 3.29969C12.3616 3 7.97933 3 7.97933 3C7.97933 3 3.59723 3 2.50169 3.28833C1.91354 3.44962 1.42913 3.93392 1.2678 4.53347C0.979492 5.62868 0.979492 7.9 0.979492 7.9C0.979492 7.9 0.979492 10.1828 1.2678 11.2665C1.4293 11.8661 1.902 12.3388 2.50177 12.5002C3.60877 12.8 7.97951 12.8 7.97951 12.8C7.97951 12.8 12.3616 12.8 13.4572 12.5117C14.0569 12.3503 14.5297 11.8776 14.6912 11.2781C14.9794 10.1828 14.9794 7.91153 14.9794 7.91153C14.9794 7.91153 14.991 5.62868 14.691 4.53347ZM6.58412 9.99833V5.80167L10.2282 7.9L6.58412 9.99833Z" fill="white"/>
</svg>
